<svg width="60" height="61" viewBox="0 0 60 61" fill="none" xmlns="http://www.w3.org/2000/svg">
<rect x="0.5" y="0.890137" width="59" height="59" rx="7.5" fill="#F6F6F6" stroke="#D0F7E0"/>
<g clip-path="url(#clip0_603_977)">
<path d="M47 29.8901C47 39.5552 39.165 47.3901 29.5 47.3901C19.835 47.3901 12 39.5552 12 29.8901C12 20.2251 19.835 12.3901 29.5 12.3901C39.165 12.3901 47 20.2251 47 29.8901Z" fill="#4720B7"/>
<path d="M40.4375 34.0464C40.4375 36.4627 38.4788 38.4214 36.0625 38.4214C33.6462 38.4214 31.6875 36.4627 31.6875 34.0464C31.6875 31.6301 33.6462 29.6714 36.0625 29.6714C38.4788 29.6714 40.4375 31.6301 40.4375 34.0464Z" fill="#D0F7E0"/>
<path d="M27.3125 34.0464C27.3125 36.4627 25.3538 38.4214 22.9375 38.4214C20.5212 38.4214 18.5625 36.4627 18.5625 34.0464C18.5625 31.6301 20.5212 29.6714 22.9375 29.6714C25.3538 29.6714 27.3125 31.6301 27.3125 34.0464Z" fill="#D0F7E0"/>
<path d="M33.875 23.1089C33.875 25.5252 31.9163 27.4839 29.5 27.4839C27.0837 27.4839 25.125 25.5252 25.125 23.1089C25.125 20.6926 27.0837 18.7339 29.5 18.7339C31.9163 18.7339 33.875 20.6926 33.875 23.1089Z" fill="#D0F7E0"/>
</g>
<defs>
<clipPath id="clip0_603_977">
<rect width="35" height="35" fill="white" transform="translate(12 12.3901)"/>
</clipPath>
</defs>
</svg>
