<svg width="60" height="61" viewBox="0 0 60 61" fill="none" xmlns="http://www.w3.org/2000/svg">
<rect x="0.5" y="0.890137" width="59" height="55" rx="7.5" fill="#F6F6F6" stroke="#D0F7E0"/>
<g clip-path="url(#clip0_603_959)">
<path d="M39.7812 32.9526H13.0938C12.8037 32.9526 12.5255 32.8374 12.3204 32.6323C12.1152 32.4272 12 32.149 12 31.8589V13.4839C12 13.1938 12.1152 12.9156 12.3204 12.7105C12.5255 12.5054 12.8037 12.3901 13.0938 12.3901H39.7812C40.0713 12.3901 40.3495 12.5054 40.5546 12.7105C40.7598 12.9156 40.875 13.1938 40.875 13.4839V31.8589C40.875 32.149 40.7598 32.4272 40.5546 32.6323C40.3495 32.8374 40.0713 32.9526 39.7812 32.9526Z" fill="#4720B7"/>
<path d="M45.9062 47.3901H19.2188C18.9287 47.3901 18.6505 47.2749 18.4454 47.0698C18.2402 46.8647 18.125 46.5865 18.125 46.2964V29.2339C18.125 28.9438 18.2402 28.6656 18.4454 28.4605C18.6505 28.2554 18.9287 28.1401 19.2188 28.1401H45.9062C46.1963 28.1401 46.4745 28.2554 46.6796 28.4605C46.8848 28.6656 47 28.9438 47 29.2339V46.2964C47 46.5865 46.8848 46.8647 46.6796 47.0698C46.4745 47.2749 46.1963 47.3901 45.9062 47.3901Z" fill="#D0F7E0"/>
</g>
<defs>
<clipPath id="clip0_603_959">
<rect width="35" height="35" fill="white" transform="translate(12 12.3901)"/>
</clipPath>
</defs>
</svg>
