<svg width="60" height="61" viewBox="0 0 60 61" fill="none" xmlns="http://www.w3.org/2000/svg">
<rect x="0.5" y="0.890137" width="59" height="59" rx="7.5" fill="#F6F6F6" stroke="#D0F7E0"/>
<g clip-path="url(#clip0_603_941)">
<path d="M47 29.8901C47 39.5552 39.165 47.3901 29.5 47.3901C19.835 47.3901 12 39.5552 12 29.8901C12 20.2251 19.835 12.3901 29.5 12.3901C39.165 12.3901 47 20.2251 47 29.8901Z" fill="#4720B7"/>
<path d="M38.0177 36.5758C38.0177 41.2196 34.253 44.9841 29.6094 44.9841C24.9655 44.9841 21.201 41.2194 21.201 36.5758C21.201 31.9319 24.9657 28.1675 29.6094 28.1675C34.2532 28.1675 38.0177 31.9322 38.0177 36.5758Z" fill="#D0F7E0"/>
</g>
<defs>
<clipPath id="clip0_603_941">
<rect width="35" height="35" fill="white" transform="translate(12 12.3901)"/>
</clipPath>
</defs>
</svg>
