<svg width="60" height="61" viewBox="0 0 60 61" fill="none" xmlns="http://www.w3.org/2000/svg">
<rect x="0.5" y="0.890137" width="59" height="59" rx="7.5" fill="#F6F6F6" stroke="#D0F7E0"/>
<g clip-path="url(#clip0_603_922)">
<path d="M41.7812 47.3901H15.0938C14.8037 47.3901 14.5255 47.2749 14.3204 47.0698C14.1152 46.8647 14 46.5865 14 46.2964V37.9839C14 37.6938 14.1152 37.4156 14.3204 37.2105C14.5255 37.0054 14.8037 36.8901 15.0938 36.8901H41.7812C42.0713 36.8901 42.3495 37.0054 42.5546 37.2105C42.7598 37.4156 42.875 37.6938 42.875 37.9839V46.2964C42.875 46.5865 42.7598 46.8647 42.5546 47.0698C42.3495 47.2749 42.0713 47.3901 41.7812 47.3901Z" fill="#4720B7"/>
<path d="M47.9062 35.1401H21.2188C20.9287 35.1401 20.6505 35.0249 20.4454 34.8198C20.2402 34.6147 20.125 34.3365 20.125 34.0464V25.7339C20.125 25.4438 20.2402 25.1656 20.4454 24.9605C20.6505 24.7554 20.9287 24.6401 21.2188 24.6401H47.9062C48.1963 24.6401 48.4745 24.7554 48.6796 24.9605C48.8848 25.1656 49 25.4438 49 25.7339V34.0464C49 34.3365 48.8848 34.6147 48.6796 34.8198C48.4745 35.0249 48.1963 35.1401 47.9062 35.1401Z" fill="#D0F7E0"/>
<path d="M41.7812 22.8901H15.0938C14.8037 22.8901 14.5255 22.7749 14.3204 22.5698C14.1152 22.3647 14 22.0865 14 21.7964V13.4839C14 13.1938 14.1152 12.9156 14.3204 12.7105C14.5255 12.5054 14.8037 12.3901 15.0938 12.3901H41.7812C42.0713 12.3901 42.3495 12.5054 42.5546 12.7105C42.7598 12.9156 42.875 13.1938 42.875 13.4839V21.7964C42.875 22.0865 42.7598 22.3647 42.5546 22.5698C42.3495 22.7749 42.0713 22.8901 41.7812 22.8901Z" fill="#4720B7"/>
</g>
<defs>
<clipPath id="clip0_603_922">
<rect width="35" height="35" fill="white" transform="translate(14 12.3901)"/>
</clipPath>
</defs>
</svg>
